<svg width="43" height="42" viewBox="0 0 43 42" fill="none" xmlns="http://www.w3.org/2000/svg">
<path d="M19.3178 38.6356C8.66736 38.6356 0 29.9682 0 19.3178C0 8.66738 8.66736 0 19.3178 0C29.9682 0 38.6356 8.66738 38.6356 19.3178C38.6356 29.9682 29.9682 38.6356 19.3178 38.6356ZM19.3178 5.3252C11.6085 5.3252 5.34748 11.5862 5.34748 19.2955C5.34748 27.0048 11.6085 33.2658 19.3178 33.2658C27.027 33.2658 33.2881 27.0048 33.2881 19.2955C33.2881 11.5862 27.027 5.3252 19.3178 5.3252Z" fill="#3545EE"/>
<path d="M37.6769 42C40.0764 42 42.0217 40.0547 42.0217 37.6551C42.0217 35.2556 40.0764 33.3103 37.6769 33.3103C35.2773 33.3103 33.332 35.2556 33.332 37.6551C33.332 40.0547 35.2773 42 37.6769 42Z" fill="#3545EE"/>
</svg>
